<?xml version="1.0" standalone="no"?>
<!DOCTYPE svg PUBLIC "-//W3C//DTD SVG 20010904//EN"
 "http://www.w3.org/TR/2001/REC-SVG-20010904/DTD/svg10.dtd">
<svg version="1.0" xmlns="http://www.w3.org/2000/svg"
 width="540.000000pt" height="540.000000pt" viewBox="0 0 540.000000 540.000000"
 preserveAspectRatio="xMidYMid meet">

<g transform="translate(0.000000,540.000000) scale(0.100000,-0.100000)"
fill="#000000" stroke="none">
<path d="M1950 4903 c-152 -25 -356 -87 -470 -143 -482 -236 -838 -757 -867
-1268 -3 -62 -10 -115 -15 -118 -4 -3 -46 -9 -92 -14 -47 -5 -94 -13 -105 -19
-59 -32 -69 -114 -20 -163 l30 -31 112 7 c62 4 141 11 176 17 76 12 105 -2
116 -53 4 -18 24 -89 45 -158 20 -69 48 -161 60 -205 24 -86 45 -158 79 -270
12 -38 42 -140 66 -225 25 -85 57 -191 70 -235 13 -44 38 -127 55 -185 17 -58
40 -134 50 -170 11 -36 40 -135 65 -220 25 -85 48 -162 51 -171 3 -10 -16 -31
-54 -61 -96 -75 -137 -170 -130 -305 10 -207 191 -356 394 -323 101 17 97 19
118 -60 9 -38 28 -85 42 -105 13 -20 24 -40 24 -45 0 -6 -19 -10 -42 -11 -148
-2 -504 -40 -552 -59 -36 -13 -32 -27 10 -35 144 -27 822 -35 936 -11 95 21
177 80 231 168 28 46 50 146 43 199 l-7 48 43 5 c24 2 108 12 188 21 80 9 201
22 270 30 337 39 520 58 570 59 l55 1 7 -63 c5 -42 17 -82 37 -118 17 -29 31
-58 31 -62 0 -5 -65 -16 -144 -26 -152 -18 -227 -34 -233 -53 -9 -26 171 -43
468 -43 263 0 303 6 385 63 56 39 117 123 136 187 7 25 12 80 11 122 l-2 77
32 5 c18 3 59 8 92 11 80 8 113 22 130 56 31 59 10 128 -44 147 -28 10 -300
-10 -321 -23 -6 -4 -40 8 -77 26 -59 29 -76 32 -153 32 -97 0 -166 -24 -232
-82 -34 -29 -44 -32 -140 -41 -57 -5 -137 -14 -178 -19 -102 -14 -213 -26
-492 -56 -131 -13 -248 -27 -260 -30 -13 -3 -80 -9 -150 -15 l-128 -10 -62 34
c-148 81 -304 63 -424 -49 -54 -51 -51 -50 -184 -64 -133 -15 -174 -1 -211 70
-32 65 -24 114 29 171 35 38 60 44 282 67 107 12 247 28 310 36 63 8 243 28
400 45 157 17 317 35 355 40 39 6 117 14 175 20 58 5 141 14 185 20 141 17
636 72 815 90 305 30 456 94 611 257 157 165 196 270 268 718 17 105 38 226
46 270 8 44 30 179 50 300 33 194 36 226 26 271 -25 111 -102 188 -216 219
-68 19 -119 16 -295 -15 -30 -5 -57 -6 -61 -2 -3 4 17 84 46 177 29 94 74 242
100 330 25 88 53 176 60 195 36 89 67 233 60 279 -9 62 -48 135 -87 164 -49
35 -85 47 -428 148 -173 50 -355 105 -405 120 -215 69 -340 10 -400 -189 -14
-48 -35 -114 -46 -147 -18 -56 -55 -177 -180 -595 -27 -90 -49 -167 -49 -171
0 -4 -10 -29 -21 -56 l-21 -48 -18 40 c-9 22 -36 57 -59 78 -54 48 -52 58 34
161 69 82 81 119 49 151 -21 20 -50 12 -91 -28 -39 -36 -47 -33 -31 14 7 19
12 73 13 121 0 96 -14 126 -53 114 -40 -13 -92 -134 -92 -214 0 -43 -13 -38
-42 16 -28 53 -65 77 -102 68 -38 -10 -41 -28 -13 -88 34 -73 59 -161 55 -199
-3 -28 -8 -33 -46 -44 -53 -16 -105 -55 -137 -103 -39 -60 -55 -144 -63 -343
l-7 -184 -40 -6 c-22 -4 -44 -5 -48 -2 -10 6 -1 236 14 388 16 150 61 233 162
296 28 18 54 34 56 35 9 7 -133 260 -193 344 -187 261 -384 343 -485 202 -72
-101 -68 -344 9 -622 22 -77 31 -90 64 -90 37 0 124 -50 171 -97 52 -54 107
-160 124 -241 14 -66 14 -172 1 -207 -9 -23 -15 -26 -52 -23 l-41 3 2 76 c6
207 -61 335 -205 388 -73 28 -118 23 -211 -24 -37 -19 -71 -31 -76 -28 -5 3
-7 33 -5 67 5 61 27 115 70 168 18 24 20 31 10 53 -10 22 -18 26 -45 23 -27
-3 -36 -11 -59 -53 -16 -27 -31 -66 -34 -86 -10 -61 -21 -68 -46 -34 -36 49
-89 94 -126 106 -41 13 -167 8 -183 -8 -34 -34 60 -150 149 -183 52 -20 63
-21 121 -11 35 7 65 11 66 9 3 -3 8 -57 6 -74 -1 -8 -16 -10 -45 -7 -164 19
-286 -67 -317 -224 -11 -53 -10 -72 6 -143 10 -44 22 -83 27 -86 4 -3 8 -13 8
-23 0 -14 -11 -20 -46 -25 -70 -9 -132 -7 -139 5 -4 6 -26 75 -50 153 -60 200
-76 226 -140 226 -14 0 -28 7 -32 16 -3 8 2 66 11 127 46 299 175 556 384 763
195 194 407 306 687 366 91 19 392 16 485 -6 239 -54 476 -176 639 -329 40
-38 55 -47 61 -36 4 8 22 62 40 122 l33 107 -24 26 c-34 37 -218 158 -309 204
-107 54 -265 107 -402 136 -101 21 -141 24 -295 23 -98 -1 -189 -4 -203 -6z
m1700 -221 c76 -24 80 -28 80 -76 0 -59 33 -86 134 -111 28 -7 113 -31 190
-54 76 -23 144 -41 152 -41 28 0 63 24 75 51 13 33 23 34 96 15 82 -22 121
-51 134 -98 13 -50 16 -40 -87 -373 -86 -281 -137 -451 -165 -550 -11 -38 -25
-74 -30 -80 -5 -5 -96 -20 -202 -32 -106 -12 -248 -29 -317 -37 -69 -8 -226
-26 -350 -40 -124 -15 -247 -31 -275 -35 -27 -5 -53 -6 -57 -3 -4 4 6 52 23
107 17 55 36 120 44 145 7 25 34 113 59 195 26 83 58 188 72 235 14 47 42 141
64 210 21 69 53 172 70 230 87 285 91 294 126 328 40 38 79 41 164 14z m-1412
-530 c5 -36 -39 -113 -104 -179 -110 -111 -165 -90 -99 38 29 55 75 107 124
140 51 34 75 34 79 1z m132 -234 c0 -60 -76 -174 -154 -230 -72 -52 -101 -31
-66 48 35 75 69 122 123 164 57 46 97 53 97 18z m248 -404 c37 -15 52 -42 31
-55 -36 -23 -151 2 -157 34 -9 47 42 55 126 21z m-1174 -136 c7 -12 2 -24 -22
-52 -35 -41 -47 -87 -38 -150 5 -34 3 -47 -10 -60 -14 -15 -19 -15 -38 -3 -18
12 -21 26 -24 88 -4 90 1 109 35 149 41 49 77 59 97 28z m1144 -84 c13 -8 21
-21 19 -27 -12 -36 -128 -31 -135 6 -8 39 6 50 51 43 23 -4 52 -14 65 -22z
m2126 -115 c22 -17 26 -28 26 -71 0 -27 -7 -80 -15 -117 -8 -36 -35 -192 -60
-346 -41 -256 -60 -365 -101 -575 -23 -120 -83 -231 -173 -320 -70 -69 -116
-99 -221 -144 -19 -8 -139 -26 -265 -41 -127 -14 -266 -30 -310 -36 -44 -5
-141 -16 -215 -24 -74 -8 -151 -17 -170 -20 -19 -3 -120 -14 -225 -25 -104
-11 -205 -23 -222 -26 -49 -9 -40 7 20 39 100 52 178 151 210 267 9 30 28 165
42 300 15 135 31 279 36 320 5 41 16 138 24 215 28 283 45 342 124 419 27 27
50 38 91 46 58 12 507 65 670 80 52 5 124 14 160 19 36 6 115 16 175 22 61 6
153 16 205 24 141 18 164 18 194 -6z m-781 -2275 c77 -56 75 -195 -5 -244 -48
-29 -88 -34 -134 -15 -83 33 -119 137 -74 210 34 55 75 77 136 72 29 -2 62
-12 77 -23z m-1820 -170 c41 -30 60 -78 55 -140 -12 -143 -192 -184 -269 -62
-16 26 -19 45 -16 90 4 64 27 99 82 124 39 19 115 12 148 -12z"/>
<path d="M3615 4073 c-139 -56 -207 -199 -166 -350 28 -103 144 -193 250 -193
43 0 51 3 51 18 0 24 40 142 57 169 20 31 74 53 127 53 51 0 51 0 46 80 -9
165 -208 286 -365 223z m270 -203 c0 -17 -10 -31 -30 -43 -16 -11 -68 -43
-115 -73 -47 -30 -92 -54 -100 -54 -17 0 -31 20 -68 92 -28 57 -26 82 8 86 21
2 30 -5 49 -40 13 -24 25 -44 26 -46 1 -1 42 23 91 53 98 62 139 69 139 25z"/>
<path d="M3865 3698 c-33 -29 -69 -155 -56 -191 13 -34 56 -62 119 -78 45 -11
59 -11 95 1 39 14 43 19 64 80 12 36 22 79 23 96 1 83 -178 150 -245 92z m163
-29 c47 -23 73 -62 55 -80 -17 -17 -88 -22 -127 -9 -43 14 -96 56 -96 75 0 39
100 47 168 14z m-28 -117 c72 -5 85 -13 51 -32 -64 -33 -201 21 -201 79 0 6
18 -1 40 -15 31 -20 57 -28 110 -32z m-63 -58 c30 -9 65 -13 78 -10 30 8 42
-10 16 -23 -61 -33 -201 20 -201 75 0 13 5 11 27 -5 14 -12 51 -28 80 -37z"/>
<path d="M4165 2751 c-58 -36 -95 -100 -95 -166 0 -37 34 -115 50 -115 5 0 14
17 20 38 15 57 71 102 127 102 39 0 90 -33 114 -75 12 -19 25 -35 29 -35 5 0
14 16 20 36 26 77 -11 170 -84 215 -42 26 -140 26 -181 0z"/>
<path d="M3455 2688 c-65 -23 -124 -106 -125 -177 0 -35 35 -121 49 -121 4 0
14 18 21 41 19 55 73 99 123 99 38 0 82 -21 104 -50 46 -59 41 -57 58 -36 8
11 15 39 15 62 0 130 -125 224 -245 182z"/>
<path d="M4210 2129 c-30 -27 -89 -66 -130 -86 -67 -33 -85 -38 -172 -41 -128
-6 -208 19 -308 95 -38 29 -76 53 -83 53 -20 0 -67 -46 -67 -65 0 -58 148
-160 285 -196 170 -45 334 -6 467 110 74 65 123 182 76 181 -7 -1 -38 -23 -68
-51z"/>
</g>
</svg>
